<svg t="1744727754872" class="icon" viewBox="0 0 1024 1024" version="1.1" xmlns="http://www.w3.org/2000/svg" p-id="4433" width="16" height="16"><path d="M728.972 13.733H355.27c-65.886 0-124.567 60.457-124.567 124.567l-35.982 0.847c-65.897 0.007-119.727 59.61-119.727 123.72V885.7c0 64.11 58.671 124.567 124.567 124.567h467.125c65.887 0 124.567-60.456 124.567-124.567h31.141c65.896 0 124.566-60.448 124.566-124.567V263.597L728.972 13.733z m-62.284 934.25H199.563c-32.685 0-62.283-30.56-62.283-62.284V262.866c0-31.724 26.641-61.27 59.319-61.27l34.106-1.014v560.55c0 64.11 58.68 124.567 124.567 124.567h373.7c0 31.724-29.598 62.284-62.284 62.284z m217.99-186.85c0 31.724-29.596 62.284-62.283 62.284H355.271c-32.685 0-62.282-30.56-62.282-62.284V138.3c0-31.724 29.597-62.284 62.282-62.284h311.417c-0.497 71.734 0 125.364 0 125.364 0 64.684 58.223 123.77 124.567 123.77h93.425l-0.001 435.984z m-93.424-498.267c-33.167 0-62.283-60.248-62.283-92.595V76.929L884.68 262.866h-93.426z m-62.282 405.173H448.696c-17.198 0-31.141-13.926-31.141-31.108 0-17.181 13.943-31.116 31.141-31.116h280.276c17.197 0 31.14 13.926 31.14 31.116 0 17.182-13.943 31.108-31.14 31.108z m0-155.55H448.696c-17.198 0-31.141-13.935-31.141-31.108 0-17.182 13.943-31.117 31.141-31.117h280.276c17.197 0 31.14 13.935 31.14 31.117 0 17.174-13.943 31.108-31.14 31.108zM478.185 339.2c-13.32-1.495-26.664-2.757-39.928-4.626-4.12-0.581-8.246-2.391-11.95-4.401-9.848-5.34-12.165-16.85-5.182-25.669 2.342-2.957 5.29-5.73 8.529-7.607 8.146-4.716 16.46-9.227 25.011-13.17 8.861-4.086 10.423-8.654 4.376-16.377-9.467-12.092-14.557-25.495-13.212-41.083 1.586-18.302 14.906-30.26 33.583-29.953 17.854 0.299 30.584 13.005 31.464 31.167 0.665 13.693-3.064 25.902-11.419 36.789-8.753 11.41-7.182 16.086 5.98 21.7 8.097 3.454 16.137 7.366 23.452 12.198 3.91 2.584 7.407 7.124 9.034 11.536 3.805 10.304-0.04 17.795-10.272 22.13-12.075 5.107-25.013 5.373-37.817 6.146-3.829 0.233-7.68 0.033-11.518 0.033a21.91 21.91 0 0 0-0.131 1.187z" p-id="4434"></path></svg>